<svg xmlns="http://www.w3.org/2000/svg" viewbox="0 0 1200 500" width="1180" height="440">

<defs>
	<linearGradient id="Gradient1" gradientUnits="userSpaceOnUse" x1="1256.04" y1="627.485" x2="1292.86" y2="719.746">
		<stop class="stop0" offset="0" stop-opacity="1" stop-color="rgb(0,42,63)"></stop>
		<stop class="stop1" offset="1" stop-opacity="1" stop-color="rgb(3,101,122)"></stop>
	</linearGradient>
	<linearGradient id="Gradient2" gradientUnits="userSpaceOnUse" x1="1339.31" y1="593.912" x2="1519.3" y2="642.807">
		<stop class="stop0" offset="0" stop-opacity="1" stop-color="rgb(7,158,159)"></stop>
		<stop class="stop1" offset="1" stop-opacity="1" stop-color="rgb(63,213,200)"></stop>
	</linearGradient>
	<linearGradient id="Gradient3" gradientUnits="userSpaceOnUse" x1="1336.71" y1="461.989" x2="1376.64" y2="566.301">
		<stop class="stop0" offset="0" stop-opacity="1" stop-color="rgb(1,58,77)"></stop>
		<stop class="stop1" offset="1" stop-opacity="1" stop-color="rgb(2,113,134)"></stop>
	</linearGradient>
	<linearGradient id="Gradient4" gradientUnits="userSpaceOnUse" x1="1476.7" y1="439.258" x2="1628.68" y2="478.073">
		<stop class="stop0" offset="0" stop-opacity="1" stop-color="rgb(29,181,174)"></stop>
		<stop class="stop1" offset="1" stop-opacity="1" stop-color="rgb(68,217,203)"></stop>
	</linearGradient>
	<linearGradient id="Gradient5" gradientUnits="userSpaceOnUse" x1="1173.46" y1="461.009" x2="1488.38" y2="487.892">
		<stop class="stop0" offset="0" stop-opacity="1" stop-color="rgb(0,112,129)"></stop>
		<stop class="stop1" offset="1" stop-opacity="1" stop-color="rgb(26,187,180)"></stop>
	</linearGradient>
	<linearGradient id="Gradient6" gradientUnits="userSpaceOnUse" x1="782.343" y1="707.742" x2="968.878" y2="627.186">
		<stop class="stop0" offset="0" stop-opacity="1" stop-color="rgb(0,68,92)"></stop>
		<stop class="stop1" offset="1" stop-opacity="1" stop-color="rgb(0,134,144)"></stop>
	</linearGradient>
	<linearGradient id="Gradient7" gradientUnits="userSpaceOnUse" x1="929.892" y1="540.425" x2="1142.77" y2="509.288">
		<stop class="stop0" offset="0" stop-opacity="1" stop-color="rgb(0,128,139)"></stop>
		<stop class="stop1" offset="1" stop-opacity="1" stop-color="rgb(49,203,192)"></stop>
	</linearGradient>
	<linearGradient id="Gradient8" gradientUnits="userSpaceOnUse" x1="969.265" y1="666.035" x2="1207.86" y2="668.078">
		<stop class="stop0" offset="0" stop-opacity="1" stop-color="rgb(0,118,142)"></stop>
		<stop class="stop1" offset="1" stop-opacity="1" stop-color="rgb(10,196,209)"></stop>
	</linearGradient>
</defs>
<path transform="translate(-470,-420)" fill="rgb(6,18,30)" d="M 1044.86 580.638 C 1056.44 573.952 1111.29 532.481 1120.56 533.818 C 1108.35 571.317 1097.87 609.358 1089.15 647.819 C 1083.68 671.898 1074.08 706.45 1085.9 728.838 C 1107.45 769.66 1183.97 766.582 1222.82 765.886 C 1293.74 761.226 1367.52 767.144 1438.72 762.941 C 1462.51 761.536 1490.62 760.605 1513.77 755.265 C 1449.52 845.538 1387.15 850.617 1283.26 850.707 L 1192.71 850.725 L 1086.35 850.709 C 956.821 850.606 920.05 848.787 960.09 704.899 C 963.836 691.437 966.593 676.839 971.191 663.485 C 971.687 658 976.39 643.492 978.129 638.074 C 985.882 631.472 994.966 622.203 1002.87 615.084 C 1016.3 602.936 1030.32 591.44 1044.86 580.638 z"></path>
<path transform="translate(-470,-420)" fill="url(#Gradient8)" d="M 1044.86 580.638 C 1056.44 573.952 1111.29 532.481 1120.56 533.818 C 1108.35 571.317 1097.87 609.358 1089.15 647.819 C 1083.68 671.898 1074.08 706.45 1085.9 728.838 C 1107.45 769.66 1183.97 766.582 1222.82 765.886 C 1218.8 768.526 1201.91 773.189 1196.43 774.838 C 1148.74 789.183 1103.47 803.149 1053.08 801.508 C 982.935 799.224 961.512 740.829 969.349 680.355 C 970.046 674.961 970.835 668.949 971.191 663.485 C 971.687 658 976.39 643.492 978.129 638.074 C 985.882 631.472 994.966 622.203 1002.87 615.084 C 1016.3 602.936 1030.32 591.44 1044.86 580.638 z"></path>
<path transform="translate(-470,-420)" fill="url(#Gradient7)" d="M 1138.51 420.221 C 1146.63 420.016 1154.76 419.932 1162.89 419.967 C 1160.41 425.664 1156.64 435.06 1153.67 440.193 C 1143.72 467.99 1133.22 495.55 1124 523.6 C 1122.98 526.696 1121.8 530.864 1120.56 533.818 C 1111.29 532.481 1056.44 573.952 1044.86 580.638 C 1030.32 591.44 1016.3 602.936 1002.87 615.084 C 994.966 622.203 985.882 631.472 978.129 638.074 C 955.902 653.472 835.219 788.885 828.478 788.722 C 810.768 760.546 794.186 728.67 776.704 699.693 C 826.067 648.534 879.935 596.409 930.444 545.875 C 972.634 504.394 1015.7 460.425 1058.61 420.131 C 1083.87 419.427 1113.12 419.937 1138.51 420.221 z"></path>
<path transform="translate(-470,-420)" fill="url(#Gradient6)" d="M 776.704 699.693 C 826.067 648.534 879.935 596.409 930.444 545.875 C 933.75 555.805 935.051 550.781 938.479 556.857 C 944.098 566.816 953.347 631.752 957.531 636.635 C 961.739 632.864 965.755 627.547 969.807 624.871 L 971.168 625.504 C 993.471 607.171 1021.9 574.301 1045.05 553.843 L 1045.77 553.483 C 1048.54 552.083 1049.15 551.739 1051.46 549.716 C 1050.14 553.361 1048.43 553.942 1047.79 558.488 C 1046.08 570.601 1051.69 570.916 1044.86 580.638 C 1030.32 591.44 1016.3 602.936 1002.87 615.084 C 994.966 622.203 985.882 631.472 978.129 638.074 C 955.902 653.472 835.219 788.885 828.478 788.722 C 810.768 760.546 794.186 728.67 776.704 699.693 z"></path>
<path transform="translate(-470,-420)" fill="rgb(6,18,30)" d="M 1045.05 553.843 L 1045.77 553.483 C 1048.54 552.083 1049.15 551.739 1051.46 549.716 C 1050.14 553.361 1048.43 553.942 1047.79 558.488 C 1046.08 570.601 1051.69 570.916 1044.86 580.638 C 1030.32 591.44 1016.3 602.936 1002.87 615.084 C 994.966 622.203 985.882 631.472 978.129 638.074 C 955.902 653.472 835.219 788.885 828.478 788.722 C 849.007 744.096 936.446 662.127 971.168 625.504 C 993.471 607.171 1021.9 574.301 1045.05 553.843 z"></path>
<path transform="translate(-470,-420)" fill="rgb(0,97,119)" d="M 1126.27 471.988 C 1135.71 463.3 1145.59 450.142 1153.67 440.193 C 1143.72 467.99 1133.22 495.55 1124 523.6 C 1122.98 526.696 1121.8 530.864 1120.56 533.818 C 1111.29 532.481 1056.44 573.952 1044.86 580.638 C 1051.69 570.916 1046.08 570.601 1047.79 558.488 C 1048.43 553.942 1050.14 553.361 1051.46 549.716 C 1049.15 551.739 1048.54 552.083 1045.77 553.483 L 1045.05 553.843 C 1049.55 547.64 1061.19 537.412 1066.81 531.435 C 1084.57 512.543 1109.69 491.421 1126.27 471.988 z"></path>
<path transform="translate(-470,-420)" fill="rgb(56,204,195)" d="M 1138.51 420.221 C 1146.63 420.016 1154.76 419.932 1162.89 419.967 C 1160.41 425.664 1156.64 435.06 1153.67 440.193 C 1145.59 450.142 1135.71 463.3 1126.27 471.988 L 1125.14 471.156 C 1121.14 459.968 1121.75 441.649 1122.75 430.044 C 1129.78 424.314 1131.25 424.634 1137.93 420.581 L 1138.51 420.221 z"></path>
<path transform="translate(-470,-420)" fill="url(#Gradient5)" d="M 1205.88 419.577 L 1408.73 420.024 C 1434.68 420.082 1461.8 419.559 1487.62 420.21 L 1646.65 419.989 C 1641.58 426.227 1626.5 445.212 1620.96 449.216 C 1601.32 472.1 1576.87 491.236 1548.94 502.851 C 1514.98 516.658 1481.29 514.235 1445.28 514.21 L 1352.75 514.161 C 1291.59 514.152 1214.21 512.686 1159.93 542.823 C 1160.9 540.058 1163.16 533.045 1164.42 530.858 C 1175.98 495.346 1195.14 454.671 1205.88 419.577 z"></path>
<path transform="translate(-470,-420)" fill="url(#Gradient4)" d="M 1487.62 420.21 L 1646.65 419.989 C 1641.58 426.227 1626.5 445.212 1620.96 449.216 C 1601.32 472.1 1576.87 491.236 1548.94 502.851 C 1548.51 497.479 1551.34 497.136 1549.56 493.656 L 1545.01 493.094 C 1518.83 499.295 1491.84 501.325 1465.03 499.108 C 1466.42 496.796 1472.91 478.214 1473.21 475.545 C 1475.38 456.612 1473.22 447.25 1481.89 429.424 C 1483.81 428.282 1493.29 423.292 1493.76 422.877 L 1492.05 424.578 L 1494.3 423.336 C 1493.89 422.83 1489.6 421.247 1488.16 420.494 L 1487.62 420.21 z"></path>
<path transform="translate(-470,-420)" fill="rgb(2,133,144)" d="M 1545.01 493.094 C 1567.09 485.581 1584.96 477.079 1604.16 463.633 C 1610.34 459.311 1614.18 453.196 1620.96 449.216 C 1601.32 472.1 1576.87 491.236 1548.94 502.851 C 1548.51 497.479 1551.34 497.136 1549.56 493.656 L 1545.01 493.094 z"></path>
<path transform="translate(-470,-420)" fill="url(#Gradient3)" d="M 1465.03 499.108 C 1491.84 501.325 1518.83 499.295 1545.01 493.094 L 1549.56 493.656 C 1551.34 497.136 1548.51 497.479 1548.94 502.851 C 1514.98 516.658 1481.29 514.235 1445.28 514.21 L 1352.75 514.161 C 1291.59 514.152 1214.21 512.686 1159.93 542.823 C 1160.9 540.058 1163.16 533.045 1164.42 530.858 C 1176.59 526.723 1186.36 516.888 1203.11 512.481 C 1287.42 490.302 1378.82 495.927 1465.03 499.108 z"></path>
<path transform="translate(-470,-420)" fill="rgb(6,18,30)" d="M 624.486 442.726 C 627.774 446.44 643.514 477.622 646.988 484.322 L 693.168 573.034 C 672.854 635.628 653.588 698.556 635.378 761.794 C 626.394 768.051 605.63 779.302 595.131 785.459 L 510.542 834.977 L 467.23 860.477 C 505.014 737.033 552.663 617.909 601.263 498.457 C 608.779 479.984 615.969 460.708 624.486 442.726 z"></path>
<path transform="translate(-470,-420)" fill="url(#Gradient2)" d="M 1329.58 582.459 C 1373.13 582.323 1416.69 582.436 1460.25 582.799 C 1483.2 582.924 1517.16 583.9 1539.47 582.435 C 1536.13 587.167 1521.21 608.745 1517.81 611.155 C 1497.12 638.597 1468.65 661.536 1433.99 668.811 C 1433.15 668.987 1432.36 668.936 1431.51 668.91 C 1407.51 675.847 1382.33 674.003 1357.91 674.648 C 1286.5 676.534 1179.92 665.43 1115.42 697.808 C 1116.64 691.669 1117.41 688.179 1119.4 682.284 C 1127.18 651.865 1140.54 612.776 1150.1 582.414 C 1209.42 583.119 1270.15 582.462 1329.58 582.459 z"></path>
<path transform="translate(-470,-420)" fill="rgb(2,133,144)" d="M 1150.1 582.414 C 1209.42 583.119 1270.15 582.462 1329.58 582.459 C 1317.54 585.194 1295.77 582.795 1282.04 583.799 C 1295.36 584.027 1339.12 582.603 1348.01 586.339 C 1354.26 594.317 1344.49 599.587 1344.67 608.445 L 1344.87 620.273 C 1343 618.365 1343.03 617.629 1342.29 614.942 C 1340.81 623.61 1340.94 632.747 1339.03 640.584 C 1338.02 644.678 1333 650.181 1331.09 655.729 C 1320.3 657.439 1284.19 655.426 1269.72 656.226 C 1271.57 656.617 1273.29 656.995 1275.16 657.301 C 1237.33 659.51 1191.36 657.917 1154.6 667.531 C 1147.95 669.271 1141.49 671.656 1135.3 674.652 C 1131.37 676.603 1121.91 683.611 1120.03 683.061 L 1119.4 682.284 C 1127.18 651.865 1140.54 612.776 1150.1 582.414 z"></path>
<path transform="translate(-470,-420)" fill="url(#Gradient1)" d="M 1275.16 657.301 C 1328.06 656.19 1386.12 664.211 1435.76 654.697 C 1432.76 658.817 1424.91 664.253 1423.6 667.549 L 1424.16 668.651 C 1427.34 669.166 1428.24 669.067 1431.51 668.91 C 1407.51 675.847 1382.33 674.003 1357.91 674.648 C 1286.5 676.534 1179.92 665.43 1115.42 697.808 C 1116.64 691.669 1117.41 688.179 1119.4 682.284 L 1120.03 683.061 C 1121.91 683.611 1131.37 676.603 1135.3 674.652 C 1141.49 671.656 1147.95 669.271 1154.6 667.531 C 1191.36 657.917 1237.33 659.51 1275.16 657.301 z"></path>
<path transform="translate(-470,-420)" fill="rgb(2,133,144)" d="M 1435.76 654.697 C 1449.76 650.352 1463.27 646.798 1476.51 640.322 C 1492.18 632.663 1503.97 621.354 1517.81 611.155 C 1497.12 638.597 1468.65 661.536 1433.99 668.811 C 1433.15 668.987 1432.36 668.936 1431.51 668.91 C 1428.24 669.067 1427.34 669.166 1424.16 668.651 L 1423.6 667.549 C 1424.91 664.253 1432.76 658.817 1435.76 654.697 z"></path>
<path transform="translate(-470,-420)" fill="rgb(6,18,30)" d="M 634.381 418.467 C 673.084 417.756 713.552 418.599 752.498 418.305 C 784.464 475.077 820.431 540.654 849.789 598.551 L 806.124 643.379 C 793.349 656.438 780.748 669.668 768.325 683.064 L 652.423 458.819 C 649.311 452.697 632.894 423.285 632.465 419.261 L 634.381 418.467 z"></path>

</svg>